<?xml version="1.0"?><svg width="640" height="480" xmlns="http://www.w3.org/2000/svg">
 <!-- Created with SVG-edit - http://svg-edit.googlecode.com/ -->
 <title>p12</title>

 <g>
  <title>Layer 1</title>
  <path fill="#ffaa56" stroke="#000000" stroke-width="3" stroke-dasharray="null" stroke-linejoin="null" stroke-linecap="null" d="m63,52c182.666672,-19.666672 345.333344,-16.333328 533,-2c5,14.333344 6,27.666656 0,43c-40.666687,88 -114.333344,166 -191,228c-43,8.333344 -85,11.666656 -129,-2c-81.666672,-47.666687 -154.333328,-129.333328 -212,-225c-3.333328,-16.333344 -7.666672,-25.666656 -1,-42z" id="svg_2"/>
  <path fill="#e50000" stroke="#000000" stroke-width="3" stroke-dasharray="null" stroke-linejoin="null" stroke-linecap="null" d="m63.179989,51.248692c188.66666,13.333309 342.333347,11.666649 533.000004,-2c5,14.333328 6,27.666645 0,42.999996c-90.666687,61 -144.333344,143 -191,228c-43,8.333344 -85,11.666656 -129,-2c-54.666687,-85.666687 -105.333344,-149.333344 -212,-225c-3.333344,-16.333351 -7.666683,-25.666664 -1.000004,-41.999996z" id="svg_3"/>
  <path fill="none" stroke="#000000" stroke-width="3" stroke-dasharray="null" stroke-linejoin="null" stroke-linecap="null" d="m61,80c180.333328,15.333344 360.666656,10.666656 541,-2" id="svg_5"/>
 </g>
</svg>